<svg width="35" height="32" viewBox="0 0 35 32" fill="none" xmlns="http://www.w3.org/2000/svg">
<circle cx="12.7255" cy="1.38886" r="1.38886" fill="black"/>
<ellipse cx="18.8453" cy="6.20646" rx="1.86628" ry="1.86628" fill="black"/>
<ellipse cx="13.4636" cy="15.9285" rx="1.95308" ry="1.95308" fill="black"/>
<ellipse cx="22.7514" cy="11.7619" rx="2.3871" ry="2.3871" fill="black"/>
<ellipse cx="31.0412" cy="7.55192" rx="1.56246" ry="1.56246" fill="black"/>
<circle cx="23.8365" cy="1.82287" r="1.12845" fill="black"/>
<circle cx="4.52268" cy="6.03286" r="1.17185" fill="black"/>
<ellipse cx="19.019" cy="21.6575" rx="1.60587" ry="1.60587" fill="black"/>
<circle cx="8.77601" cy="20.2686" r="1.43226" fill="black"/>
<ellipse cx="24.4008" cy="19.227" rx="1.60587" ry="1.60587" fill="black"/>
<circle cx="29.6958" cy="22.9596" r="1.17185" fill="black"/>
<circle cx="22.3176" cy="30.6851" r="1.17185" fill="black"/>
<circle cx="33.602" cy="14.366" r="1.17185" fill="black"/>
<circle cx="24.2704" cy="24.3918" r="1.38886" fill="black"/>
<circle cx="30.694" cy="18.9232" r="1.38886" fill="black"/>
<circle cx="24.7478" cy="28.4282" r="1.17185" fill="black"/>
<circle cx="12.6823" cy="23.22" r="1.17185" fill="black"/>
<circle cx="2.61301" cy="17.8381" r="1.17185" fill="black"/>
<circle cx="1.70174" cy="10.5032" r="1.47566" fill="black"/>
<ellipse cx="9.21003" cy="9.41819" rx="1.86628" ry="1.86628" fill="black"/>
<line x1="1.87398" y1="11.6938" x2="2.42614" y2="17.4833" stroke="black" stroke-width="0.520821"/>
<line x1="2.34649" y1="11.3055" x2="8.24913" y2="19.465" stroke="black" stroke-width="0.520821"/>
<line x1="2.50524" y1="10.8744" x2="12.4876" y2="15.4749" stroke="black" stroke-width="0.520821"/>
<line x1="2.53275" y1="10.419" x2="8.00138" y2="9.63781" stroke="black" stroke-width="0.520821"/>
<line x1="2.0113" y1="9.74316" x2="4.2682" y2="6.61823" stroke="black" stroke-width="0.520821"/>
<line x1="4.97778" y1="6.38517" x2="8.0159" y2="8.55526" stroke="black" stroke-width="0.520821"/>
<line x1="4.95771" y1="5.85015" x2="12.2492" y2="1.68358" stroke="black" stroke-width="0.520821"/>
<line x1="9.62297" y1="8.48869" x2="12.4875" y2="1.97842" stroke="black" stroke-width="0.520821"/>
<line x1="13.4206" y1="14.5955" x2="12.8129" y2="1.92216" stroke="black" stroke-width="0.520821"/>
<line x1="14.0589" y1="14.9802" x2="18.2255" y2="7.25469" stroke="black" stroke-width="0.520821"/>
<line x1="10.2103" y1="9.1286" x2="17.7622" y2="6.52449" stroke="black" stroke-width="0.520821"/>
<line x1="10.2517" y1="9.63887" x2="21.5362" y2="11.5485" stroke="black" stroke-width="0.520821"/>
<line x1="9.16648" y1="10.6867" x2="8.81926" y2="19.8878" stroke="black" stroke-width="0.520821"/>
<line x1="12.3806" y1="17.0321" x2="9.34243" y2="19.8098" stroke="black" stroke-width="0.520821"/>
<line x1="9.32389" y1="20.6252" x2="12.5356" y2="23.0557" stroke="black" stroke-width="0.520821"/>
<line x1="3.10178" y1="17.9875" x2="8.2232" y2="20.0708" stroke="black" stroke-width="0.520821"/>
<line x1="9.72325" y1="20.4013" x2="18.4904" y2="21.6166" stroke="black" stroke-width="0.520821"/>
<line x1="13.2741" y1="23.0098" x2="18.4823" y2="21.7945" stroke="black" stroke-width="0.520821"/>
<line x1="19.3055" y1="22.5628" x2="22.2568" y2="30.2883" stroke="black" stroke-width="0.520821"/>
<line x1="20.0471" y1="21.7894" x2="29.8559" y2="22.9179" stroke="black" stroke-width="0.520821"/>
<line x1="19.7884" y1="22.0766" x2="23.8681" y2="24.1599" stroke="black" stroke-width="0.520821"/>
<line x1="25.0266" y1="19.6641" x2="29.28" y2="22.6154" stroke="black" stroke-width="0.520821"/>
<line x1="30.513" y1="19.6792" x2="29.7318" y2="22.8909" stroke="black" stroke-width="0.520821"/>
<line x1="29.8259" y1="19.0968" x2="25.4857" y2="19.0968" stroke="black" stroke-width="0.520821"/>
<line x1="23.6901" y1="19.4176" x2="20.1312" y2="21.1537" stroke="black" stroke-width="0.520821"/>
<line x1="23.8471" y1="19.0854" x2="14.2119" y2="16.1341" stroke="black" stroke-width="0.520821"/>
<line x1="18.3555" y1="21.0151" x2="14.1021" y2="16.6749" stroke="black" stroke-width="0.520821"/>
<line x1="24.1017" y1="18.4517" x2="23.1469" y2="13.5039" stroke="black" stroke-width="0.520821"/>
<line x1="19.2534" y1="20.739" x2="22.2047" y2="13.1003" stroke="black" stroke-width="0.520821"/>
<line x1="14.613" y1="15.475" x2="21.3837" y2="12.3501" stroke="black" stroke-width="0.520821"/>
<line x1="23.978" y1="11.2264" x2="30.5751" y2="7.84106" stroke="black" stroke-width="0.520821"/>
<line x1="24.1551" y1="12.1591" x2="33.6167" y2="14.3292" stroke="black" stroke-width="0.520821"/>
<line x1="24.7395" y1="18.5327" x2="30.6421" y2="8.28992" stroke="black" stroke-width="0.520821"/>
<line x1="24.9279" y1="18.9545" x2="33.4346" y2="14.3539" stroke="black" stroke-width="0.520821"/>
<line x1="33.4014" y1="14.0668" x2="31.3181" y2="8.51138" stroke="black" stroke-width="0.520821"/>
<line x1="31.0834" y1="18.2604" x2="33.3403" y2="14.7883" stroke="black" stroke-width="0.520821"/>
<line x1="22.8836" y1="10.4739" x2="23.8384" y2="2.05394" stroke="black" stroke-width="0.520821"/>
<line x1="17.684" y1="5.32437" x2="13.257" y2="1.76543" stroke="black" stroke-width="0.520821"/>
<line x1="23.654" y1="1.82272" x2="13.6716" y2="1.47551" stroke="black" stroke-width="0.520821"/>
<line x1="30.702" y1="7.40564" x2="24.2786" y2="2.11062" stroke="black" stroke-width="0.520821"/>
<line x1="30.4058" y1="7.46362" x2="19.9025" y2="6.33517" stroke="black" stroke-width="0.520821"/>
<line x1="21.8944" y1="10.4019" x2="19.5507" y2="7.36376" stroke="black" stroke-width="0.520821"/>
<line x1="23.5702" y1="2.10899" x2="19.7508" y2="5.32072" stroke="black" stroke-width="0.520821"/>
<line x1="24.3564" y1="25.064" x2="24.6168" y2="28.1021" stroke="black" stroke-width="0.520821"/>
<line x1="29.5373" y1="23.0831" x2="25.0235" y2="24.1247" stroke="black" stroke-width="0.520821"/>
<line x1="24.2741" y1="28.9228" x2="23.0589" y2="30.0513" stroke="black" stroke-width="0.520821"/>
</svg>
