<svg width="25" height="24" viewBox="0 0 25 24" fill="none" xmlns="http://www.w3.org/2000/svg">
<path d="M16.09 14.37C16.2982 15.2511 16.3044 16.1678 16.108 17.0516C15.9116 17.9354 15.5177 18.7633 14.9559 19.4732C14.3941 20.1832 13.6789 20.7568 12.864 21.1511C12.049 21.5454 11.1553 21.7501 10.25 21.75V16.95M16.09 14.37C17.9999 12.9788 19.5536 11.1555 20.6242 9.04908C21.6947 6.94267 22.2519 4.61287 22.25 2.25C19.8873 2.2483 17.5577 2.80549 15.4515 3.87607C13.3452 4.94665 11.5221 6.50026 10.131 8.41M16.09 14.37C14.3519 15.6413 12.3603 16.5214 10.25 16.95M10.25 16.95C10.147 16.971 10.043 16.991 9.939 17.01C9.03179 16.2906 8.21038 15.4692 7.491 14.562C7.50989 14.4578 7.52889 14.3538 7.55 14.25M10.131 8.41C9.24986 8.2016 8.33298 8.19532 7.44907 8.39164C6.56516 8.58797 5.73714 8.98179 5.02707 9.54362C4.317 10.1054 3.7433 10.8207 3.34895 11.6357C2.9546 12.4508 2.74984 13.3446 2.75 14.25H7.55M10.131 8.41C8.85988 10.1478 7.97875 12.14 7.55 14.25M5.311 16.64C4.65318 17.1292 4.14173 17.789 3.83202 18.548C3.52232 19.307 3.42618 20.1363 3.554 20.946C4.36383 21.0737 5.19316 20.9774 5.95218 20.6675C6.71119 20.3577 7.37095 19.846 7.86 19.188M17 9C17 9.39783 16.842 9.77936 16.5607 10.0607C16.2794 10.342 15.8978 10.5 15.5 10.5C15.1022 10.5 14.7206 10.342 14.4393 10.0607C14.158 9.77936 14 9.39783 14 9C14 8.60218 14.158 8.22065 14.4393 7.93934C14.7206 7.65804 15.1022 7.5 15.5 7.5C15.8978 7.5 16.2794 7.65804 16.5607 7.93934C16.842 8.22065 17 8.60218 17 9Z" stroke="black" stroke-width="1.5" stroke-linecap="round" stroke-linejoin="round"/>
</svg>
